<?xml version="1.0" standalone="no"?>
<!DOCTYPE svg PUBLIC "-//W3C//DTD SVG 20010904//EN"
 "http://www.w3.org/TR/2001/REC-SVG-20010904/DTD/svg10.dtd">
<svg version="1.0" xmlns="http://www.w3.org/2000/svg"
 width="512.000000pt" height="512.000000pt" viewBox="0 0 512.000000 512.000000"
 preserveAspectRatio="xMidYMid meet">

<g transform="translate(0.000000,512.000000) scale(0.100000,-0.100000)"
fill="#000000" stroke="none">
<path d="M2216 4760 l-57 -50 -87 0 c-373 0 -830 -101 -1076 -237 -273 -151
-397 -343 -383 -593 9 -162 71 -301 184 -416 l58 -59 -286 -290 c-316 -319
-338 -349 -361 -485 -15 -90 -2 -178 43 -269 29 -61 100 -135 883 -918 846
-847 851 -852 931 -890 78 -37 83 -38 190 -38 196 0 106 -75 1109 924 l868
866 39 -44 c79 -89 142 -258 174 -466 9 -61 20 -227 25 -370 16 -440 34 -546
107 -644 45 -58 130 -78 199 -45 120 57 224 313 289 711 42 261 50 371 50 723
0 371 -10 461 -76 689 -147 512 -496 878 -1015 1066 -240 87 -579 145 -849
145 l-59 0 -371 370 -371 370 -51 0 c-46 0 -55 -4 -107 -50z m1072 -1173 l962
-962 -937 -937 c-913 -911 -939 -937 -992 -952 -67 -20 -65 -20 -132 0 -52 15
-78 40 -882 842 -553 552 -838 844 -858 877 -35 61 -39 138 -10 200 12 26 122
142 309 329 l291 290 98 -46 c294 -138 739 -232 1205 -254 135 -7 137 -7 157
-35 70 -94 233 -99 314 -10 44 49 60 99 55 167 -15 173 -227 246 -355 122
l-32 -31 -148 6 c-264 11 -587 61 -812 126 -103 30 -272 92 -301 111 -12 8 98
123 540 565 305 305 557 555 560 555 3 0 438 -433 968 -963z m-1807 439 c-454
-454 -465 -464 -487 -449 -52 34 -122 138 -149 222 -23 71 -17 199 12 256 89
171 340 308 696 380 109 22 304 50 372 54 13 1 -146 -164 -444 -463z m2059
-202 c290 -42 582 -152 780 -292 97 -69 240 -212 310 -310 148 -207 238 -474
271 -797 21 -209 3 -600 -42 -899 -34 -228 -118 -531 -141 -508 -11 11 -24
178 -38 497 -6 132 -17 283 -25 335 -40 253 -116 442 -229 567 l-35 40 35 34
c74 70 99 132 73 182 -6 12 -270 282 -588 600 l-576 578 50 -6 c28 -3 97 -13
155 -21z"/>
</g>
</svg>
