<?xml version="1.0" encoding="iso-8859-1"?>
<!-- Generator: Adobe Illustrator 19.0.0, SVG Export Plug-In . SVG Version: 6.00 Build 0)  -->
<svg version="1.1" id="Layer_1" xmlns="http://www.w3.org/2000/svg" xmlns:xlink="http://www.w3.org/1999/xlink" x="0px" y="0px"
	 viewBox="0 0 295.238 295.238" style="enable-background:new 0 0 295.238 295.238;" xml:space="preserve">
<g>
	<g>
		<g>
			<path d="M278.219,240.557l-21.352-49.719c0.114-0.91,0.276-1.805,0.276-2.743c0-0.148-0.043-0.29-0.043-0.438l36.59-85.19
				c4.138-9.648-0.338-20.871-9.986-25.019c-9.662-4.143-20.886,0.338-25.019,9.99l-23.114,53.814l-7-16.295V59.933L168.638,0H0
				v285.714h183.238c5.233,5.829,12.8,9.524,21.238,9.524c15.757,0,28.571-12.814,28.571-28.571c0-5.157-1.395-9.986-3.795-14.167
				l6.319-14.71l6.319,14.71c-2.4,4.181-3.795,9.01-3.795,14.167c0,15.757,12.814,28.571,28.571,28.571s28.571-12.814,28.571-28.571
				C295.239,255.024,288.229,245.005,278.219,240.557z M267.438,91.195c2.076-4.824,7.686-7.067,12.505-4.995
				c4.829,2.076,7.062,7.686,4.995,12.51L252.3,174.695c-1.181-1.462-2.519-2.781-4.038-3.89l-7.51-17.486L267.438,91.195z
				 M247.62,188.095c0,6.567-5.338,11.905-11.905,11.905c-6.567,0-11.905-5.338-11.905-11.905c0-6.567,5.338-11.905,11.905-11.905
				C242.281,176.19,247.62,181.529,247.62,188.095z M236.139,166.709c-0.148-0.005-0.281-0.043-0.424-0.043
				c-6.829,0-12.848,3.271-16.776,8.257L186.206,98.71c-2.071-4.824,0.171-10.433,4.995-12.51c4.8-2.071,10.429,0.162,12.51,4.995
				L236.139,166.709z M171.43,16.257l40.886,40.886H171.43V16.257z M175.901,266.662c0,3.343,0.61,6.538,1.667,9.524H9.524V9.524
				h152.381v57.143h57.143v36.114l-6.59-15.343c-4.148-9.652-15.376-14.124-25.019-9.99c-9.648,4.148-14.129,15.371-9.99,25.019
				l36.852,85.8c0.005,0.69,0.133,1.352,0.205,2.024l-21.586,50.262C182.911,245,175.901,255.019,175.901,266.662z M204.471,285.714
				c-10.505,0-19.048-8.543-19.048-19.048s8.543-19.048,19.048-19.048s19.048,8.543,19.048,19.048S214.982,285.714,204.471,285.714z
				 M222.357,244.419c-4.9-3.948-11.114-6.324-17.886-6.324c-0.043,0-0.086,0.005-0.133,0.005l15.4-35.862
				c0.357,0.405,0.69,0.829,1.076,1.205l9.567,22.271L222.357,244.419z M233.711,209.324c0.671,0.062,1.319,0.2,2.005,0.2
				c6.267,0,11.862-2.752,15.781-7.052L266.8,238.1c-0.048,0-0.09-0.005-0.133-0.005c-6.767,0-12.986,2.376-17.881,6.324
				L233.711,209.324z M266.667,285.714c-10.505,0-19.048-8.543-19.048-19.048s8.543-19.048,19.048-19.048
				s19.048,8.543,19.048,19.048C285.714,277.171,277.172,285.714,266.667,285.714z"/>
			<rect x="23.81" y="76.19" width="142.857" height="9.524"/>
			<rect x="23.81" y="100" width="147.619" height="9.524"/>
			<rect x="23.81" y="123.81" width="157.143" height="9.524"/>
			<rect x="23.81" y="147.619" width="166.667" height="9.524"/>
			<rect x="123.81" y="171.429" width="76.19" height="9.524"/>
		</g>
	</g>
</g>
<g>
</g>
<g>
</g>
<g>
</g>
<g>
</g>
<g>
</g>
<g>
</g>
<g>
</g>
<g>
</g>
<g>
</g>
<g>
</g>
<g>
</g>
<g>
</g>
<g>
</g>
<g>
</g>
<g>
</g>
</svg>
