<?xml version="1.0"?>
<svg xmlns="http://www.w3.org/2000/svg" viewBox="0 0 80 80">
    <path d="M 17 12 L 17 13 L 17 16 L 17 18 L 17 23 L 20.931641 23 L 22.265625 19 L 34 19 L 34 61.769531 L 28 64.339844 L 28 68 L 35 68 L 36 68 L 44 68 L 45 68 L 52 68 L 52 64.339844 L 46 61.769531 L 46 19 L 57.734375 19 L 59.068359 23 L 63 23 L 63 18 L 63 16 L 63 12 L 17 12 z M 19 14 L 61 14 L 61 16 L 61 18 L 61 21 L 60.509766 21 L 59.175781 17 L 44 17 L 44 63.087891 L 50 65.660156 L 50 66 L 45 66 L 44 66 L 36 66 L 35 66 L 30 66 L 30 65.660156 L 36 63.087891 L 36 17 L 20.824219 17 L 19.490234 21 L 19 21 L 19 18 L 19 16 L 19 14 z M 50 21 A 1 1 0 0 0 49 22 A 1 1 0 0 0 50 23 A 1 1 0 0 0 51 22 A 1 1 0 0 0 50 21 z M 50 25 A 1 1 0 0 0 49 26 A 1 1 0 0 0 50 27 A 1 1 0 0 0 51 26 A 1 1 0 0 0 50 25 z M 50 29 A 1 1 0 0 0 49 30 A 1 1 0 0 0 50 31 A 1 1 0 0 0 51 30 A 1 1 0 0 0 50 29 z M 50 33 A 1 1 0 0 0 49 34 A 1 1 0 0 0 50 35 A 1 1 0 0 0 51 34 A 1 1 0 0 0 50 33 z M 50 37 A 1 1 0 0 0 49 38 A 1 1 0 0 0 50 39 A 1 1 0 0 0 51 38 A 1 1 0 0 0 50 37 z M 50 41 A 1 1 0 0 0 49 42 A 1 1 0 0 0 50 43 A 1 1 0 0 0 51 42 A 1 1 0 0 0 50 41 z M 50 45 A 1 1 0 0 0 49 46 A 1 1 0 0 0 50 47 A 1 1 0 0 0 51 46 A 1 1 0 0 0 50 45 z M 50 49 A 1 1 0 0 0 49 50 A 1 1 0 0 0 50 51 A 1 1 0 0 0 51 50 A 1 1 0 0 0 50 49 z M 50 53 A 1 1 0 0 0 49 54 A 1 1 0 0 0 50 55 A 1 1 0 0 0 51 54 A 1 1 0 0 0 50 53 z M 50 57 A 1 1 0 0 0 49 58 A 1 1 0 0 0 50 59 A 1 1 0 0 0 51 58 A 1 1 0 0 0 50 57 z"/>
</svg>
