<svg height="511pt" viewBox="0 -51 511.99729 511" width="511pt" xmlns="http://www.w3.org/2000/svg"><path d="m196.265625 43.042969h307.199219c4.710937 0 8.53125-3.824219 8.53125-8.535157 0-4.710937-3.820313-8.53125-8.53125-8.53125h-307.199219c-4.710937 0-8.535156 3.820313-8.535156 8.53125 0 4.710938 3.824219 8.535157 8.535156 8.535157zm0 0"/><path d="m196.265625 128.375h221.863281c4.710938 0 8.535156-3.824219 8.535156-8.535156 0-4.707032-3.824218-8.53125-8.535156-8.53125h-221.863281c-4.710937 0-8.535156 3.824218-8.535156 8.53125 0 4.710937 3.824219 8.535156 8.535156 8.535156zm0 0"/><path d="m503.464844 196.640625h-307.199219c-4.710937 0-8.535156 3.824219-8.535156 8.535156 0 4.710938 3.824219 8.53125 8.535156 8.53125h307.199219c4.710937 0 8.53125-3.820312 8.53125-8.53125 0-4.710937-3.8125-8.535156-8.53125-8.535156zm0 0"/><path d="m196.265625 299.042969h221.863281c4.710938 0 8.535156-3.824219 8.535156-8.535157 0-4.710937-3.824218-8.53125-8.535156-8.53125h-221.863281c-4.710937 0-8.535156 3.820313-8.535156 8.53125 0 4.710938 3.824219 8.535157 8.535156 8.535157zm0 0"/><path d="m503.464844 367.308594h-307.199219c-4.710937 0-8.535156 3.824218-8.535156 8.53125 0 4.710937 3.824219 8.535156 8.535156 8.535156h307.199219c4.710937 0 8.53125-3.824219 8.53125-8.535156 0-4.707032-3.8125-8.53125-8.53125-8.53125zm0 0"/><path d="m162.128906 102.773438c3.371094 0 6.425782-1.976563 7.800782-5.058594 1.375-3.082032.800781-6.671875-1.449219-9.183594l-76.800781-85.332031c-3.234376-3.601563-9.445313-3.601563-12.6875 0l-76.800782 85.332031c-2.253906 2.5-2.824218 6.101562-1.453125 9.183594 1.375 3.082031 4.429688 5.058594 7.800781 5.058594h68.265626v204.800781h-68.265626c-3.371093 0-6.425781 1.980469-7.800781 5.0625-1.371093 3.078125-.800781 6.671875 1.453125 9.179687l76.800782 85.332032c1.621093 1.800781 3.921874 2.828124 6.347656 2.828124 2.414062 0 4.726562-1.027343 6.339844-2.828124l76.800781-85.332032c2.25-2.5 2.824219-6.101562 1.449219-9.179687-1.375-3.082031-4.429688-5.0625-7.800782-5.0625h-68.265625v-204.800781zm0 0"/></svg>