<?xml version="1.0"?>
<svg xmlns="http://www.w3.org/2000/svg" viewBox="0 0 50 50">
    <path d="M 5 2 C 3.346 2 2 3.346 2 5 L 2 45 C 2 46.654 3.346 48 5 48 L 45 48 C 46.654 48 48 46.654 48 45 L 48 12 C 48 11.734 47.90675 11.46825 47.71875 11.28125 L 38.71875 2.28125 C 38.53175 2.09325 38.266 2 38 2 L 5 2 z M 12 4 L 35 4 C 36.103 4 37 4.897 37 6 L 37 17 C 37 18.103 36.103 19 35 19 L 12 19 C 10.897 19 10 18.103 10 17 L 10 6 C 10 4.897 10.897 4 12 4 z M 30 6 C 29.447 6 29 6.447 29 7 L 29 16 C 29 16.553 29.447 17 30 17 L 33 17 C 33.553 17 34 16.553 34 16 L 34 7 C 34 6.447 33.553 6 33 6 L 30 6 z M 12.8125 26.03125 L 37.1875 26.03125 C 38.7175 26.03125 39.96875 27.2825 39.96875 28.8125 L 39.96875 46 L 10.03125 46 L 10.03125 28.8125 C 10.03125 27.2825 11.2825 26.03125 12.8125 26.03125 z M 6 41 L 8 41 L 8 43 L 6 43 L 6 41 z M 42 41 L 44 41 L 44 43 L 42 43 L 42 41 z"/>
</svg>
