<?xml version="1.0" standalone="no"?>
<!DOCTYPE svg PUBLIC "-//W3C//DTD SVG 20010904//EN"
 "http://www.w3.org/TR/2001/REC-SVG-20010904/DTD/svg10.dtd">
<svg version="1.0" xmlns="http://www.w3.org/2000/svg"
 width="512.000000pt" height="512.000000pt" viewBox="0 0 512.000000 512.000000"
 preserveAspectRatio="xMidYMid meet">

<g transform="translate(0.000000,512.000000) scale(0.100000,-0.100000)"
fill="#000000" stroke="none">
<path d="M2203 4600 c-12 -5 -28 -19 -36 -32 -33 -52 -1267 -3308 -1267 -3342
0 -25 9 -45 29 -68 l29 -33 340 0 340 0 25 23 c18 17 62 131 168 433 l144 409
574 -2 574 -3 143 -403 c78 -222 150 -412 159 -422 35 -39 60 -41 404 -38
l333 3 29 33 c20 23 29 43 29 68 0 23 -224 620 -630 1682 -532 1390 -635 1651
-660 1675 l-30 27 -338 -1 c-185 0 -347 -4 -359 -9z m1168 -1727 l585 -1528
-185 -3 c-133 -2 -187 1 -192 9 -4 7 -58 157 -119 333 -62 177 -126 356 -142
398 -49 130 30 118 -770 118 l-690 0 -31 -32 c-27 -28 -55 -99 -171 -430
l-139 -398 -179 0 c-99 0 -177 3 -175 8 4 5 1055 2756 1156 3025 l11 27 228 0
228 0 585 -1527z"/>
<path d="M2514 4043 c-12 -2 -31 -14 -43 -27 -29 -31 -521 -1437 -521 -1489 0
-29 7 -46 29 -68 l29 -29 539 0 c597 0 570 -3 599 66 12 29 11 40 -6 98 -50
159 -480 1387 -494 1409 -27 40 -69 53 -132 40z m210 -906 c91 -263 166 -483
166 -488 0 -5 -136 -9 -340 -9 -187 0 -340 3 -340 6 0 5 309 894 332 953 5 13
10 22 13 20 2 -2 78 -219 169 -482z"/>
<path d="M968 791 l-33 -29 0 -352 0 -352 33 -29 32 -29 1575 0 1575 0 32 29
33 29 0 352 0 352 -33 29 -32 29 -1575 0 -1575 0 -32 -29z m3032 -381 l0 -200
-1425 0 -1425 0 0 200 0 200 1425 0 1425 0 0 -200z"/>
</g>
</svg>
